<svg width="334" height="439" viewBox="0 0 334 439" fill="none" xmlns="http://www.w3.org/2000/svg">
<path d="M333.529 0H0.282593V333.247H333.529V0Z" fill="#00374E"/>
<path d="M287.201 161.491V262.153L257.256 275.524L163.751 317.239H162.433L133.901 304.903L71.3764 277.784L41.4323 264.884V16.1962L71.3764 30.8858V251.983L87.6668 258.575V38.7956L117.611 53.391V273.076L133.901 280.891V61.395L163.751 75.9904V291.438L257.256 249.252V173.168L188.611 143.789V118.553L257.256 148.403L287.201 161.491Z" fill="#F1C631"/>
<path d="M333.152 342.946H288.989V352.833H304.527V396.054H317.239V352.833H333.058V342.946H333.152ZM270.062 385.79C268.838 386.732 267.143 387.203 265.072 387.203C261.776 387.203 259.422 386.544 257.915 385.225C256.409 383.907 255.75 381.741 255.75 378.916H242.943C242.943 382.4 243.791 385.508 245.58 388.238C247.369 390.969 249.911 393.041 253.395 394.547C256.88 396.054 260.74 396.902 264.978 396.902C271.004 396.902 275.806 395.583 279.291 392.947C282.775 390.31 284.47 386.638 284.47 382.024C284.47 376.186 281.645 371.666 275.901 368.37C273.547 367.052 270.533 365.733 266.955 364.603C263.283 363.379 260.74 362.249 259.328 361.213C257.915 360.083 257.162 358.859 257.162 357.541C257.162 355.94 257.821 354.716 259.139 353.68C260.458 352.644 262.247 352.174 264.507 352.174C266.767 352.174 268.556 352.739 269.874 353.963C271.192 355.187 271.852 356.788 271.852 358.953H284.564C284.564 355.752 283.716 352.833 282.021 350.29C280.326 347.748 277.972 345.865 275.053 344.452C272.04 343.134 268.65 342.381 264.883 342.381C261.023 342.381 257.444 343.04 254.337 344.264C251.23 345.488 248.781 347.277 247.086 349.537C245.391 351.797 244.544 354.339 244.544 357.353C244.544 363.285 247.934 367.899 254.808 371.289C256.88 372.325 259.61 373.455 262.906 374.491C266.202 375.621 268.556 376.656 269.874 377.692C271.192 378.728 271.852 380.235 271.852 382.024C271.852 383.624 271.287 384.849 270.062 385.79ZM235.222 364.038H215.259V352.833H238.988V342.946H202.547V396.054H238.894V386.167H215.259V373.455H235.222V364.038ZM162.904 342.946H148.779L166.388 396.054H180.324L198.121 342.946H183.902L173.356 381.553L162.904 342.946ZM144.259 342.946H131.547V375.997L112.903 342.946H100.19V396.054H112.903V363.003L131.641 396.054H144.259V342.946ZM90.7741 342.946H78.0619V396.054H90.7741V342.946ZM50.001 369.782C50.0952 372.325 50.9427 374.396 52.6376 375.903C54.3326 377.504 56.4984 378.257 59.2291 378.257C62.054 378.257 64.2198 377.504 65.9148 375.903C67.6097 374.302 68.4572 372.231 68.4572 369.594V368.087C68.363 365.545 67.5155 363.473 65.9148 361.873C64.2198 360.272 62.054 359.518 59.2291 359.518C56.4984 359.518 54.3326 360.366 52.6376 361.967C50.9427 363.568 50.0952 365.733 50.0952 368.276V369.782H50.001ZM13.4654 352.833H19.6802C22.5051 352.833 24.5767 353.304 25.895 354.339C27.2133 355.281 27.7783 356.976 27.7783 359.142C27.7783 361.119 27.2133 362.532 25.9892 363.568C24.7651 364.603 22.7876 365.074 20.0569 365.074H13.4654V352.833ZM22.3168 373.455C26.6483 373.455 28.9083 375.715 28.9083 380.14C28.9083 382.024 28.2491 383.53 27.025 384.566C25.8009 385.602 24.0118 386.167 21.7518 386.167H13.3712V373.455H22.3168ZM22.1285 396.054C28.5316 395.96 33.4282 394.642 36.7239 392.099C40.0196 389.463 41.6204 385.602 41.6204 380.423C41.6204 377.598 40.8671 375.15 39.4547 373.172C37.948 371.195 35.8764 369.782 33.1457 369.123C35.5939 368.182 37.4772 366.769 38.7013 364.792C39.9255 362.814 40.5846 360.46 40.5846 357.729C40.5846 352.927 38.7955 349.349 35.3114 346.806C31.7332 344.264 26.6483 343.04 19.7744 343.04H0.659058V396.148H22.1285V396.054Z" fill="#00374E"/>
<path d="M307.069 411.026H318.275C321.288 411.026 323.642 411.591 325.337 412.721C327.032 413.757 327.879 415.264 327.879 417.053C327.879 418.936 327.032 420.443 325.337 421.384C323.642 422.42 321.1 422.891 317.898 422.891H307.069V411.026ZM317.898 426.092C323.077 426.092 327.126 425.339 329.857 423.738C332.682 422.138 334 419.878 334 416.959C334 414.134 332.588 411.968 329.763 410.273C326.938 408.578 322.983 407.73 317.898 407.73H300.948V437.957H306.975V426.092H317.898ZM253.019 407.73V428.164C253.019 430.33 252.077 432.025 250.288 433.249C248.499 434.473 245.862 435.038 242.378 435.038C238.988 435.038 236.352 434.473 234.563 433.249C232.774 432.025 231.832 430.33 231.832 428.164V407.73H225.805V428.258C225.805 431.366 227.406 433.814 230.325 435.603C233.339 437.392 237.293 438.24 242.378 438.24H243.979C248.593 438.051 252.266 437.016 254.996 435.226C257.727 433.437 259.045 431.083 259.045 428.258V407.73H253.019ZM179.288 424.115C179.194 427.599 178.158 430.33 175.993 432.213C173.827 434.096 170.814 435.038 166.859 435.038C162.998 435.038 159.891 434.002 157.725 432.025C155.465 430.047 154.429 427.317 154.429 423.833V421.573C154.523 418.183 155.653 415.546 157.819 413.569C159.985 411.685 162.998 410.65 166.859 410.65C170.814 410.65 173.827 411.591 176.087 413.569C178.253 415.452 179.383 418.277 179.383 421.855V424.115H179.288ZM185.315 421.855C185.315 418.936 184.562 416.299 183.055 414.134C181.548 411.874 179.383 410.179 176.558 409.049C173.733 407.919 170.531 407.26 166.859 407.26C163.281 407.26 159.985 407.825 157.254 409.049C154.429 410.273 152.263 411.968 150.757 414.134C149.25 416.394 148.497 418.936 148.497 421.855V424.021C148.497 426.846 149.344 429.388 150.851 431.554C152.357 433.72 154.617 435.415 157.348 436.545C160.173 437.675 163.375 438.334 166.953 438.334C170.625 438.334 173.921 437.769 176.652 436.545C179.383 435.415 181.548 433.72 183.055 431.46C184.562 429.294 185.315 426.657 185.315 423.738V421.855ZM83.9002 411.026H93.2224C96.424 411.026 98.8723 411.591 100.567 412.533C102.262 413.569 103.11 414.981 103.11 416.864C103.11 418.559 102.262 419.972 100.473 421.008C98.684 422.043 96.3298 422.514 93.3166 422.514H83.9002V411.026ZM104.71 437.957H111.208V437.675L100.379 424.868C103.11 424.209 105.275 423.173 106.876 421.761C108.383 420.348 109.23 418.748 109.23 416.864C109.23 413.945 107.818 411.685 105.087 410.085C102.262 408.578 98.3073 407.73 93.1283 407.73H77.8737V437.957H83.9944V425.716H94.8232L104.71 437.957ZM35.4999 422.891H18.8328V426.187H29.4734V432.966C28.3434 433.72 26.9309 434.285 25.236 434.661C23.541 435.038 21.5636 435.132 19.3036 435.132C15.2546 435.132 12.053 434.096 9.6989 432.119C7.34479 430.142 6.12067 427.411 6.12067 424.021V421.573C6.12067 417.994 7.15647 415.264 9.32225 413.38C11.3939 411.497 14.5013 410.555 18.5503 410.555C24.671 410.555 28.2492 412.533 29.3792 416.582H35.4057C34.7465 413.663 32.9574 411.309 30.0383 409.708C27.1193 408.107 23.2585 407.26 18.4562 407.26C12.618 407.26 8.09811 408.484 4.80237 411.026C1.60079 413.569 0 417.053 0 421.573V424.209C0 427.034 0.847475 429.482 2.44826 431.648C4.04905 433.814 6.30899 435.415 9.22808 436.545C12.1472 437.675 15.4429 438.24 19.2095 438.24C22.8819 438.24 26.1776 437.863 28.9084 437.11C31.7333 436.356 33.8991 435.321 35.4057 433.814V422.891H35.4999Z" fill="#00374E"/>
</svg>
