<?xml version="1.0" encoding="utf-8"?>
<!-- Generator: Adobe Illustrator 24.3.0, SVG Export Plug-In . SVG Version: 6.00 Build 0)  -->
<svg version="1.1" id="Laag_1" xmlns="http://www.w3.org/2000/svg" xmlns:xlink="http://www.w3.org/1999/xlink" x="0px" y="0px"
	 viewBox="0 0 215.2 215.2" style="enable-background:new 0 0 215.2 215.2;" xml:space="preserve">
<style type="text/css">
	.st0{fill:#F1C631;}
	.st1{display:none;}
	.st2{display:inline;fill:none;stroke:#F1C631;stroke-width:5;stroke-linecap:round;stroke-linejoin:round;stroke-miterlimit:10;}
	.st3{display:inline;}
	.st4{fill:#00374E;stroke:#00374E;stroke-miterlimit:10;}
	.st5{fill:#F1C631;stroke:#F1C631;stroke-width:3;stroke-miterlimit:10;}
	.st6{fill:#00374E;}
</style>
<g id="ondergrond">
	<rect x="-0.2" y="-0.7" class="st0" width="215.2" height="215.2"/>
</g>
<g id="dak" class="st1">
	<polygon class="st2" points="154.7,56.7 59.9,56.7 11.5,145.4 106.3,145.4 	"/>
	<line class="st2" x1="204.4" y1="145.4" x2="197" y2="153.5"/>
	<line class="st2" x1="106.3" y1="145.4" x2="112.3" y2="153.5"/>
	<path class="st2" d="M126.4,131.3"/>
	<path class="st2" d="M148.6,90.8"/>
	<path class="st2" d="M136.5,111.2"/>
	<line class="st2" x1="191" y1="145.4" x2="120.6" y2="145.4"/>
	<polyline class="st2" points="112.3,156.3 18.4,156.3 11.5,145.4 	"/>
	<polyline class="st2" points="197,153.5 155.4,78.1 113.3,156.3 	"/>
	<line class="st2" x1="156" y1="56.7" x2="204.4" y2="145.4"/>
	<line class="st2" x1="147.8" y1="92.9" x2="172.5" y2="137.4"/>
	<line class="st2" x1="143.4" y1="77.4" x2="132.5" y2="56.7"/>
	<line class="st2" x1="119.3" y1="121.5" x2="82.1" y2="56.7"/>
	<line class="st2" x1="150.6" y1="137.4" x2="136.1" y2="113.8"/>
	<line class="st2" x1="130.1" y1="101.7" x2="104.3" y2="56.7"/>
	<line class="st2" x1="82.1" y1="56.7" x2="37.7" y2="137.4"/>
	<line class="st2" x1="130.5" y1="56.7" x2="86.1" y2="137.4"/>
	<line class="st2" x1="104.3" y1="56.7" x2="61.9" y2="137.4"/>
</g>
<g id="ruwbouw" class="st1">
	<g id="icoon" class="st3">
		<path class="st0" d="M34.3,160.1h52.2v26H34.3V160.1z M40.9,179.7H80v-13.1H40.9V179.7z"/>
		<path class="st0" d="M80,160.1h52.2v26H80V160.1z M86.5,179.7h39.1v-13.1H86.5V179.7z"/>
		<path class="st0" d="M57.2,140.6h52.2v26H57.2V140.6z M63.7,160.1h39.1V147H63.7V160.1z"/>
		<path class="st0" d="M102.8,140.6H155v26h-52.2V140.6z M109.3,160.1h39.1V147h-39.1C109.3,147,109.3,160.1,109.3,160.1z"/>
		<path class="st0" d="M125.6,160.1h52.2v26h-52.2C125.6,186.1,125.6,160.1,125.6,160.1z M132.1,179.7h39.1v-13.1h-39.1V179.7z"/>
		<path class="st0" d="M34.3,121H80v26H34.3V121z M40.9,140.6h32.6v-13.1H40.9V140.6z"/>
		<path class="st0" d="M125.6,121h52.2v26h-52.2C125.6,147,125.6,121,125.6,121z M132.1,140.6h39.1v-13.1h-39.1V140.6z"/>
		<path class="st0" d="M34.3,81.9h52.2v26H34.3V81.9z M40.9,101.5H80V88.4H40.9V101.5z"/>
		<path class="st0" d="M99.3,138.6c-1.3,0-2.7-0.4-3.9-1.2c-2.2-1.4-3.4-4-3.1-6.6L98.6,81c0.2-1.9,1.3-3.7,3-4.8s3.6-1.5,5.5-1
			l57.1,13.3c2.8,0.6,4.9,2.9,5.3,5.7s-0.9,5.6-3.4,7l-63.4,36.5C101.7,138.3,100.5,138.6,99.3,138.6 M105.7,81.4
			c-0.1,0-0.2,0-0.2,0.1L99,131.7c0,0.1,0,0.2,0.2,0.4c0.2,0.1,0.3,0,0.4,0L163,95.5c0.1,0,0.2-0.1,0.2-0.4s-0.2-0.3-0.3-0.3
			L105.7,81.4L105.7,81.4z"/>
		<polyline class="st0" points="139.9,88 133.6,86.2 141.7,56.9 148.1,58.8 139.9,88 		"/>
		<path class="st0" d="M148,64.3c-0.9,0-1.7-0.1-2.7-0.3c-2.7-0.7-5-2.3-6.4-4.8c-1.4-2.3-1.8-5.2-1.1-7.9s2.3-5,4.8-6.4l23.1-13.7
			c2.3-1.4,5.2-1.8,7.9-1.1c2.7,0.7,5,2.3,6.3,4.8c1.4,2.3,1.8,5.2,1.1,7.9s-2.3,5-4.8,6.4l-23.1,13.7
			C151.7,63.8,149.8,64.3,148,64.3 M171.1,36.2c-0.7,0-1.3,0.2-1.9,0.5L146,50.4c-0.9,0.5-1.5,1.3-1.7,2.3c-0.3,1-0.1,2,0.4,3
			c0.5,0.9,1.3,1.5,2.3,1.7s2,0.1,3-0.4l23.1-13.7c0.9-0.5,1.5-1.3,1.7-2.3c0.3-1,0.1-2-0.4-3c-0.5-0.9-1.3-1.5-2.3-1.7
			C171.7,36.3,171.4,36.2,171.1,36.2z"/>
		<path class="st0" d="M110,121.2c-0.7,0-1.4-0.2-2-0.7c-1.4-1.1-1.6-3.2-0.6-4.6l18.9-24.2c1.1-1.4,3.2-1.6,4.6-0.5
			s1.6,3.2,0.5,4.6l-18.9,24.1C111.8,120.7,110.9,121.2,110,121.2"/>
		<polyline class="st0" points="96.3,127.5 57.2,127.5 57.2,101.5 96.3,101.5 96.3,108 63.7,108 63.7,121 96.3,121 96.3,127.5 		"/>
		<polyline class="st0" points="132.1,147.1 73.4,147.1 73.4,121 96.3,121 96.3,127.5 80,127.5 80,140.6 125.6,140.6 125.6,124.2 
			132.1,124.2 132.1,147.1 		"/>
	</g>
</g>
<g id="grond" class="st1">
	<g id="icoon_1_" class="st3">
		<g>
			<g>
				<rect x="101.4" y="157.4" class="st4" width="47.8" height="15.3"/>
				<path class="st5" d="M123.8,108.1h-22.7V65.9c0-6.4,5.1-11.6,11.3-11.6c6.2,0,11.3,5.2,11.3,11.6L123.8,108.1 M104.1,106H121
					V66.1c0-4.9-3.8-8.8-8.4-8.8c-4.7,0-8.4,4-8.4,8.8C104.1,66.1,104.1,106,104.1,106z"/>
				<path class="st4" d="M118.6,70L118.6,70c-2.7,4.9-8.8,6.6-13.5,3.8L57.5,45c-4.7-2.8-6.3-9.2-3.6-14.1s8.8-6.6,13.5-3.8
					L115,55.8C119.7,58.7,121.3,65,118.6,70"/>
				<path class="st5" d="M110,76.6c-1.9,0-3.8-0.5-5.6-1.6L56.8,46.3c-2.6-1.6-4.5-4.1-5.3-7.2c-0.8-3.1-0.4-6.2,1.1-9
					c1.5-2.7,3.9-4.7,6.9-5.5s5.9-0.4,8.6,1.2l47.6,28.7c5.4,3.3,7.3,10.5,4.1,16.2C117.7,74.5,114,76.6,110,76.6 M62.5,27.3
					c-0.8,0-1.4,0.1-2.2,0.3c-2.2,0.6-4,2.1-5.2,4.1c-1.1,2-1.4,4.4-0.9,6.7c0.6,2.3,2,4.2,3.9,5.4l47.6,28.7c4,2.4,9.2,1,11.5-3.2
					l1.2,0.8l-1.2-0.8c2.3-4.2,1-9.6-3.1-12L66.7,28.5C65.3,27.7,63.9,27.3,62.5,27.3z"/>
				<path class="st4" d="M21.4,98.9l29.5-67.8c3.2-5.7,9.5-8,14.3-5.1c4.7,2.8,6,9.8,2.9,15.4l-41.8,61.2"/>
				<path class="st4" d="M26.2,102.6"/>
				<path class="st5" d="M26.5,104.7l-6.9-5.3l30-68.9v-0.1c1.7-3.1,4.3-5.3,7.3-6.4c3.1-1.1,6.2-0.8,8.9,0.8
					c2.7,1.6,4.5,4.3,5.1,7.7c0.6,3.3,0,6.8-1.7,9.8v0.1v0.1L26.5,104.7 M23.2,98.4l2.7,2.1l40.9-59.9c1.3-2.4,1.8-5.1,1.3-7.7
					c-0.5-2.5-1.8-4.5-3.7-5.6c-1.9-1.2-4.2-1.3-6.5-0.5s-4.4,2.6-5.7,5L23.2,98.4z"/>
				<path class="st5" d="M182,196.9H77.5c-6.6,0-12-5.6-12-12.5s5.4-12.5,12-12.5H182c6.6,0,12,5.6,12,12.5S188.5,196.9,182,196.9
					 M77.5,175c-5,0-9,4.2-9,9.4s4,9.4,9,9.4H182c5,0,9-4.2,9-9.4s-4-9.4-9-9.4H77.5z"/>
				<path class="st5" d="M189.1,162.9H95.5c-5.4,0-10.2-3.6-12.1-8.9c-0.5-1.4-0.8-2.9-0.8-4.4v-30.3c0-7.4,5.7-13.3,12.7-13.3h35.2
					c7.1,0,12.7,6,12.7,13.3v11.6h45.6c4.1,0,7.9,1.7,10.8,4.7c2.9,3,4.5,7,4.5,11.3C204.4,155.8,197.5,162.9,189.1,162.9 M95.5,109
					c-5.5,0-9.9,4.6-9.9,10.3v30.3c0,1.2,0.2,2.3,0.6,3.4c1.4,4.1,5.2,6.9,9.3,6.9H189c6.8,0,12.4-5.8,12.4-13
					c0-3.5-1.2-6.7-3.6-9.2c-2.3-2.4-5.5-3.8-8.8-3.8h-48.4v-14.7c0-5.7-4.4-10.3-9.9-10.3H95.5V109z"/>
				<path class="st4" d="M71.8,120.8l-8-5.3l-9.3,0.3L23.3,94.4c0,0-12.9,30-8.1,33.9c4.7,3.7,9.7,7.2,19.6,13.4
					c7.9,4.9,32.6-15.5,33.7-16.3L71.8,120.8"/>
				<path class="st5" d="M37.9,144c-1.4,0-2.8-0.3-3.7-1c-9.8-6.1-14.9-9.6-19.8-13.5c-1.6-1.3-2-3.9-1.3-8.4
					c0.5-3.1,1.5-7,3.1-11.7c2.6-8,5.9-15.5,5.9-15.6l0.7-1.6l32.3,22.1l9.2-0.3l9.8,6.5l-4.5,6l-0.1,0.1
					c-0.7,0.6-7.1,5.8-14.5,10.4c-4.3,2.7-8.1,4.6-11.2,5.8C41.4,143.6,39.5,144,37.9,144 M23.9,96.6c-1.1,2.6-3.3,8.1-5.2,13.8
					c-1.5,4.6-2.5,8.3-3,11.2c-0.8,4.6,0.1,5.4,0.2,5.5c4.8,3.8,9.9,7.3,19.5,13.3c1.3,0.9,3.8,0.7,7.2-0.5c3-1.1,6.6-2.9,10.7-5.5
					c6.8-4.3,12.8-9.1,14-10.1l2.3-3.1l-6.3-4.2l-9.3,0.3L23.9,96.6z"/>
			</g>
		</g>
	</g>
</g>
<g>
	<path class="st6" d="M57,128.8c-4.1,0-7.5,3.4-7.5,7.5s3.4,7.5,7.5,7.5s7.5-3.4,7.5-7.5S61.1,128.8,57,128.8z"/>
	<path class="st6" d="M164.7,128.8c-4.1,0-7.5,3.4-7.5,7.5s3.4,7.5,7.5,7.5s7.5-3.4,7.5-7.5S168.8,128.8,164.7,128.8z"/>
	<path class="st6" d="M197.2,96.9l-6.2-8.4c-0.8-1.6-6.5-12-11.9-19.4c0,0-0.1-0.1-0.1-0.1l-6.1-7.6c-3.3-4.2-8.4-6.8-13.8-6.8H28
		c-5.5,0-10,4.5-10,10v67.2c0,4.6,3.7,8.3,8.3,8.3h4.4c1.6,0,2.9-1.3,2.9-2.9c0-1.6-1.3-2.9-2.9-2.9h-4.4c-1.4,0-2.5-1.1-2.5-2.5
		V64.6c0-2.3,1.9-4.1,4.1-4.1h131.2c3.6,0,7,1.7,9.2,4.6l6.1,7.6c5.4,7.6,11.4,18.7,11.5,18.8c0.1,0.1,0.1,0.2,0.2,0.4l6.4,8.6
		c0,0,0.1,0.1,0.1,0.1c2.9,3.6,4.4,8,4.4,12.6v21.1c0,0.3-0.3,0.6-0.6,0.6h-4.9c-1.6,0-2.9,1.3-2.9,2.9c0,1.6,1.3,2.9,2.9,2.9h4.9
		c3.5,0,6.4-2.9,6.4-6.4v-21.1C202.9,107.2,200.9,101.5,197.2,96.9z"/>
	<path class="st6" d="M138.1,134.8H83.6c-1.6,0-2.9,1.3-2.9,2.9c0,1.6,1.3,2.9,2.9,2.9h54.6c1.6,0,2.9-1.3,2.9-2.9
		C141.1,136.1,139.7,134.8,138.1,134.8z"/>
	<path class="st6" d="M57,117.1c-10.6,0-19.2,8.6-19.2,19.2s8.6,19.2,19.2,19.2s19.2-8.6,19.2-19.2S67.6,117.1,57,117.1z M57,149.7
		c-7.4,0-13.4-6-13.4-13.4s6-13.4,13.4-13.4c7.4,0,13.4,6,13.4,13.4S64.3,149.7,57,149.7z"/>
	<path class="st6" d="M164.7,117.1c-10.6,0-19.2,8.6-19.2,19.2s8.6,19.2,19.2,19.2c10.6,0,19.2-8.6,19.2-19.2
		S175.3,117.1,164.7,117.1z M164.7,149.7c-7.4,0-13.4-6-13.4-13.4s6-13.4,13.4-13.4c7.4,0,13.4,6,13.4,13.4S172.1,149.7,164.7,149.7
		z"/>
	<path class="st6" d="M159.8,72.1c1.6,0,2.9-1.3,2.9-2.9c0-1.6-1.3-2.9-2.9-2.9h-26.1c-1.6,0-2.9,1.3-2.9,2.9V95
		c0,1.6,1.3,2.9,2.9,2.9h24.6l7.3,4.9c0.5,0.3,1.1,0.5,1.6,0.5h13.5c1.6,0,2.9-1.3,2.9-2.9c0-1.6-1.3-2.9-2.9-2.9h-12.6l-7.3-4.9
		c-0.5-0.3-1.1-0.5-1.6-0.5H154c0-0.1,0-0.3,0-0.4V79.9c0-1.6-1.3-2.9-2.9-2.9c-1.6,0-2.9,1.3-2.9,2.9v11.7c0,0.1,0,0.3,0,0.4h-11.6
		v-20H159.8z"/>
	<path class="st6" d="M35.8,84.1h82.4c1.6,0,2.9-1.3,2.9-2.9c0-1.6-1.3-2.9-2.9-2.9H35.8c-1.6,0-2.9,1.3-2.9,2.9
		C32.9,82.8,34.2,84.1,35.8,84.1z"/>
	<path class="st6" d="M121.1,101.8c0-1.6-1.3-2.9-2.9-2.9H35.8c-1.6,0-2.9,1.3-2.9,2.9c0,1.6,1.3,2.9,2.9,2.9h82.4
		C119.8,104.8,121.1,103.4,121.1,101.8z"/>
	<path class="st6" d="M147.7,108.7c0-1.6-1.3-2.9-2.9-2.9h-8c-1.6,0-2.9,1.3-2.9,2.9c0,1.6,1.3,2.9,2.9,2.9h8
		C146.4,111.6,147.7,110.3,147.7,108.7z"/>
</g>
</svg>
