<?xml version="1.0" encoding="utf-8"?>
<!-- Generator: Adobe Illustrator 24.3.0, SVG Export Plug-In . SVG Version: 6.00 Build 0)  -->
<svg version="1.1" id="Laag_1" xmlns="http://www.w3.org/2000/svg" xmlns:xlink="http://www.w3.org/1999/xlink" x="0px" y="0px"
	 viewBox="0 0 215.2 215.2" style="enable-background:new 0 0 215.2 215.2;" xml:space="preserve">
<style type="text/css">
	.st0{fill:#00374E;}
	.st1{fill:none;stroke:#F1C631;stroke-width:3;stroke-linecap:round;stroke-linejoin:round;stroke-miterlimit:10;}
</style>
<rect class="st0" width="214.6" height="214.6"/>
<polygon class="st1" points="154.7,56.7 59.9,56.7 11.5,145.4 106.3,145.4 "/>
<line class="st1" x1="203.1" y1="145.4" x2="197" y2="153.5"/>
<line class="st1" x1="106.3" y1="145.4" x2="112.3" y2="153.5"/>
<line class="st1" x1="126.4" y1="131.3" x2="176.8" y2="131.3"/>
<line class="st1" x1="148.6" y1="89" x2="154.7" y2="89"/>
<line class="st1" x1="136.5" y1="111.2" x2="166.8" y2="111.2"/>
<line class="st1" x1="191" y1="145.4" x2="118.4" y2="145.4"/>
<polyline class="st1" points="112.3,153.5 17.6,153.5 11.5,145.4 "/>
<polyline class="st1" points="197,153.5 154.7,76.9 112.3,153.5 "/>
<line class="st1" x1="154.7" y1="56.7" x2="203.1" y2="145.4"/>
<polyline class="st1" points="148.7,87.6 149.4,89 174.8,137.4 "/>
<line class="st1" x1="143.4" y1="77.4" x2="132.5" y2="56.7"/>
<line class="st1" x1="128.5" y1="137.4" x2="124.8" y2="131"/>
<line class="st1" x1="119.3" y1="121.5" x2="82.1" y2="56.7"/>
<line class="st1" x1="150.6" y1="137.4" x2="135.6" y2="111.3"/>
<line class="st1" x1="130.1" y1="101.7" x2="104.3" y2="56.7"/>
<line class="st1" x1="82.1" y1="56.7" x2="37.7" y2="137.4"/>
<line class="st1" x1="130.5" y1="56.7" x2="86.1" y2="137.4"/>
<line class="st1" x1="104.3" y1="56.7" x2="61.9" y2="137.4"/>
</svg>
