<?xml version="1.0" encoding="utf-8"?>
<!-- Generator: Adobe Illustrator 24.3.0, SVG Export Plug-In . SVG Version: 6.00 Build 0)  -->
<svg version="1.1" xmlns="http://www.w3.org/2000/svg" xmlns:xlink="http://www.w3.org/1999/xlink" x="0px" y="0px"
	 viewBox="0 0 215.2 215.2" style="enable-background:new 0 0 215.2 215.2;" xml:space="preserve">
<style type="text/css">
	.st0{fill:#00374E;}
	.st1{fill:#00374E;stroke:#00374E;stroke-miterlimit:10;}
	.st2{fill:#F1C631;stroke:#F1C631;stroke-miterlimit:10;}
</style>
<g id="Laag_1">
	<rect class="st0" width="215.2" height="215.2"/>
</g>
<g id="icoon">
	<g>
		<g>
			<rect x="100.2" y="157.9" class="st1" width="49.9" height="15.3"/>
			<path class="st1" d="M122.1,108h-20.6V66.6c0-5.7,4.6-10.3,10.3-10.3c5.7,0,10.3,4.6,10.3,10.3V108"/>
			<path class="st2" d="M123.6,109.5H99.9V66.6c0-6.5,5.3-11.8,11.8-11.8c6.5,0,11.8,5.3,11.8,11.8V109.5 M103,106.5h17.6V66.6
				c0-4.9-4-8.8-8.8-8.8c-4.9,0-8.8,4-8.8,8.8V106.5z"/>
			<path class="st1" d="M118.1,70.5L118.1,70.5c-2.8,4.9-9.2,6.6-14.1,3.8L54.3,45.5c-4.9-2.8-6.6-9.2-3.8-14.1
				c2.8-4.9,9.2-6.6,14.1-3.8l49.7,28.7C119.3,59.2,121,65.5,118.1,70.5"/>
			<path class="st2" d="M109.2,77.1c-2,0-4-0.5-5.9-1.6L53.6,46.8c-2.7-1.6-4.7-4.1-5.5-7.2c-0.8-3.1-0.4-6.2,1.2-9
				c1.6-2.7,4.1-4.7,7.2-5.5c3.1-0.8,6.2-0.4,9,1.2l49.7,28.7c5.6,3.3,7.6,10.5,4.3,16.2C117.2,75,113.3,77.1,109.2,77.1 M59.5,27.8
				c-0.8,0-1.5,0.1-2.3,0.3c-2.3,0.6-4.2,2.1-5.4,4.1c-1.2,2-1.5,4.4-0.9,6.7c0.6,2.3,2.1,4.2,4.1,5.4l49.7,28.7
				c4.2,2.4,9.6,1,12-3.2l1.3,0.8l-1.3-0.8c2.4-4.2,1-9.6-3.2-12L63.9,29C62.5,28.2,61,27.8,59.5,27.8z"/>
			<path class="st1" d="M21.6,103.1l-5-3.7l30.8-67.8c3.3-5.7,9.9-8,14.9-5.1c4.9,2.8,6.3,9.8,3,15.4L21.6,103.1"/>
			<path class="st2" d="M21.9,105.2l-7.2-5.3l31.3-68.9l0-0.1c1.8-3.1,4.5-5.3,7.6-6.4c3.2-1.1,6.5-0.8,9.3,0.8
				c2.8,1.6,4.7,4.3,5.3,7.7c0.6,3.3,0,6.8-1.8,9.8l0,0.1l0,0.1L21.9,105.2 M18.5,98.9l2.8,2.1L64,41.1c1.4-2.4,1.9-5.1,1.4-7.7
				c-0.5-2.5-1.9-4.5-3.9-5.6c-2-1.2-4.4-1.3-6.8-0.5c-2.4,0.8-4.6,2.6-6,5L18.5,98.9z"/>
			<path class="st1" d="M184.4,189.9H75.2c-6,0-10.9-4.9-10.9-10.9S69.1,168,75.2,168h109.2c6,0,10.9,4.9,10.9,10.9
				S190.4,189.9,184.4,189.9"/>
			<path class="st2" d="M184.4,191.4H75.2c-6.9,0-12.5-5.6-12.5-12.5s5.6-12.5,12.5-12.5h109.2c6.9,0,12.5,5.6,12.5,12.5
				S191.2,191.4,184.4,191.4 M75.2,169.5c-5.2,0-9.4,4.2-9.4,9.4c0,5.2,4.2,9.4,9.4,9.4h109.2c5.2,0,9.4-4.2,9.4-9.4
				c0-5.2-4.2-9.4-9.4-9.4H75.2z"/>
			<path class="st1" d="M190.8,132.8h-26.6c0-3.4,2.8-6.2,6.2-6.2h14.1C188,126.6,190.8,129.4,190.8,132.8"/>
			<path class="st2" d="M192.3,134.3h-29.6v-1.5c0-4.3,3.5-7.7,7.7-7.7h14.1c4.3,0,7.7,3.5,7.7,7.7V134.3 M166,131.3h23.1
				c-0.6-1.9-2.4-3.2-4.5-3.2h-14.1C168.4,128.1,166.6,129.4,166,131.3z"/>
			<path class="st1" d="M166.2,184.8H97c-3.2,0-5.8-2.6-5.8-5.8s2.6-5.8,5.8-5.8h69.2c3.2,0,5.8,2.6,5.8,5.8
				S169.4,184.8,166.2,184.8"/>
			<path class="st1" d="M185.8,126.6h-8.2V122c0-2,1.6-3.6,3.6-3.6h1c2,0,3.6,1.6,3.6,3.6V126.6"/>
			<path class="st2" d="M187.3,128.1h-11.2V122c0-2.8,2.3-5.1,5.1-5.1h1c2.8,0,5.1,2.3,5.1,5.1V128.1 M179.1,125.1h5.2V122
				c0-1.2-0.9-2.1-2.1-2.1h-1c-1.2,0-2.1,0.9-2.1,2.1V125.1z"/>
			<path class="st1" d="M206.2,147.4c0,8-6.5,14.5-14.5,14.5H94c-5.2,0-9.5-3.3-11.2-7.9c-0.4-1.2-0.7-2.6-0.7-3.9v-30.3
				c0-6.5,5.3-11.8,11.8-11.8h36.8c6.5,0,11.8,5.3,11.8,11.8V133h49.1c4,0,7.6,1.6,10.2,4.2C204.6,139.8,206.2,143.5,206.2,147.4"/>
			<path class="st2" d="M191.8,163.4H94c-5.6,0-10.7-3.6-12.6-8.9c-0.5-1.4-0.8-2.9-0.8-4.4v-30.3c0-7.4,6-13.3,13.3-13.3h36.8
				c7.4,0,13.3,6,13.3,13.3v11.6h47.6c4.3,0,8.3,1.7,11.3,4.7c3,3,4.7,7,4.7,11.3C207.8,156.3,200.6,163.4,191.8,163.4 M94,109.5
				c-5.7,0-10.3,4.6-10.3,10.3v30.3c0,1.2,0.2,2.3,0.6,3.4c1.5,4.1,5.4,6.9,9.7,6.9h97.7c7.1,0,13-5.8,13-13c0-3.5-1.3-6.7-3.8-9.2
				c-2.4-2.4-5.7-3.8-9.2-3.8h-50.6v-14.7c0-5.7-4.6-10.3-10.3-10.3H94z"/>
			<path class="st1" d="M69.3,121.3l-8.4-5.3l-9.7,0.3L18.6,94.9c0,0-13.5,30-8.5,33.9c4.9,3.7,10.1,7.2,20.5,13.4
				c8.2,4.9,34.1-15.5,35.2-16.3L69.3,121.3"/>
			<path class="st2" d="M33.8,144.5c-1.5,0-2.9-0.3-3.9-1c-10.2-6.1-15.6-9.6-20.7-13.5c-1.7-1.3-2.1-3.9-1.4-8.4
				c0.5-3.1,1.6-7,3.2-11.7c2.7-8,6.2-15.5,6.2-15.6l0.7-1.6l33.7,22.1l9.6-0.3l10.2,6.5l-4.7,6l-0.1,0.1
				c-0.7,0.6-7.4,5.8-15.1,10.4c-4.5,2.7-8.5,4.6-11.7,5.8C37.5,144.1,35.5,144.5,33.8,144.5 M19.2,97.1c-1.1,2.6-3.4,8.1-5.4,13.8
				c-1.6,4.6-2.6,8.3-3.1,11.2c-0.8,4.6,0.1,5.4,0.2,5.5c5,3.8,10.3,7.3,20.4,13.3c1.4,0.9,4,0.7,7.5-0.5c3.1-1.1,6.9-2.9,11.2-5.5
				c7.1-4.3,13.4-9.1,14.6-10.1l2.4-3.1l-6.6-4.2l-9.7,0.3L19.2,97.1z"/>
			<path class="st1" d="M20.6,102.1c-0.6,0-1-0.4-1-1c0-0.6,0.4-1,1-1c0.6,0,1,0.5,1,1C21.6,101.7,21.2,102.1,20.6,102.1"/>
		</g>
	</g>
</g>
</svg>
