<?xml version="1.0" encoding="utf-8"?>
<!-- Generator: Adobe Illustrator 24.3.0, SVG Export Plug-In . SVG Version: 6.00 Build 0)  -->
<svg version="1.1" id="Laag_1" xmlns="http://www.w3.org/2000/svg" xmlns:xlink="http://www.w3.org/1999/xlink" x="0px" y="0px"
	 viewBox="0 0 215.2 215.2" style="enable-background:new 0 0 215.2 215.2;" xml:space="preserve">
<style type="text/css">
	.st0{fill:#F1C631;}
	.st1{display:none;}
	.st2{display:inline;fill:none;stroke:#F1C631;stroke-width:5;stroke-linecap:round;stroke-linejoin:round;stroke-miterlimit:10;}
	.st3{display:inline;}
	.st4{fill:#00374E;stroke:#00374E;stroke-miterlimit:10;}
	.st5{fill:#F1C631;stroke:#F1C631;stroke-width:3;stroke-miterlimit:10;}
	.st6{fill-rule:evenodd;clip-rule:evenodd;fill:#00374E;}
</style>
<g id="ondergrond">
	<rect x="-0.2" y="-0.7" class="st0" width="215.2" height="215.2"/>
</g>
<g id="dak" class="st1">
	<polygon class="st2" points="154.7,56.7 59.9,56.7 11.5,145.4 106.3,145.4 	"/>
	<line class="st2" x1="204.4" y1="145.4" x2="197" y2="153.5"/>
	<line class="st2" x1="106.3" y1="145.4" x2="112.3" y2="153.5"/>
	<path class="st2" d="M126.4,131.3"/>
	<path class="st2" d="M148.6,90.8"/>
	<path class="st2" d="M136.5,111.2"/>
	<line class="st2" x1="191" y1="145.4" x2="120.6" y2="145.4"/>
	<polyline class="st2" points="112.3,156.3 18.4,156.3 11.5,145.4 	"/>
	<polyline class="st2" points="197,153.5 155.4,78.1 113.3,156.3 	"/>
	<line class="st2" x1="156" y1="56.7" x2="204.4" y2="145.4"/>
	<line class="st2" x1="147.8" y1="92.9" x2="172.5" y2="137.4"/>
	<line class="st2" x1="143.4" y1="77.4" x2="132.5" y2="56.7"/>
	<line class="st2" x1="119.3" y1="121.5" x2="82.1" y2="56.7"/>
	<line class="st2" x1="150.6" y1="137.4" x2="136.1" y2="113.8"/>
	<line class="st2" x1="130.1" y1="101.7" x2="104.3" y2="56.7"/>
	<line class="st2" x1="82.1" y1="56.7" x2="37.7" y2="137.4"/>
	<line class="st2" x1="130.5" y1="56.7" x2="86.1" y2="137.4"/>
	<line class="st2" x1="104.3" y1="56.7" x2="61.9" y2="137.4"/>
</g>
<g id="ruwbouw" class="st1">
	<g id="icoon" class="st3">
		<path class="st0" d="M34.3,160.1h52.2v26H34.3V160.1z M40.9,179.7H80v-13.1H40.9V179.7z"/>
		<path class="st0" d="M80,160.1h52.2v26H80V160.1z M86.5,179.7h39.1v-13.1H86.5V179.7z"/>
		<path class="st0" d="M57.2,140.6h52.2v26H57.2V140.6z M63.7,160.1h39.1V147H63.7V160.1z"/>
		<path class="st0" d="M102.8,140.6H155v26h-52.2V140.6z M109.3,160.1h39.1V147h-39.1C109.3,147,109.3,160.1,109.3,160.1z"/>
		<path class="st0" d="M125.6,160.1h52.2v26h-52.2C125.6,186.1,125.6,160.1,125.6,160.1z M132.1,179.7h39.1v-13.1h-39.1V179.7z"/>
		<path class="st0" d="M34.3,121H80v26H34.3V121z M40.9,140.6h32.6v-13.1H40.9V140.6z"/>
		<path class="st0" d="M125.6,121h52.2v26h-52.2C125.6,147,125.6,121,125.6,121z M132.1,140.6h39.1v-13.1h-39.1V140.6z"/>
		<path class="st0" d="M34.3,81.9h52.2v26H34.3V81.9z M40.9,101.5H80V88.4H40.9V101.5z"/>
		<path class="st0" d="M99.3,138.6c-1.3,0-2.7-0.4-3.9-1.2c-2.2-1.4-3.4-4-3.1-6.6L98.6,81c0.2-1.9,1.3-3.7,3-4.8s3.6-1.5,5.5-1
			l57.1,13.3c2.8,0.6,4.9,2.9,5.3,5.7s-0.9,5.6-3.4,7l-63.4,36.5C101.7,138.3,100.5,138.6,99.3,138.6 M105.7,81.4
			c-0.1,0-0.2,0-0.2,0.1L99,131.7c0,0.1,0,0.2,0.2,0.4c0.2,0.1,0.3,0,0.4,0L163,95.5c0.1,0,0.2-0.1,0.2-0.4s-0.2-0.3-0.3-0.3
			L105.7,81.4L105.7,81.4z"/>
		<polyline class="st0" points="139.9,88 133.6,86.2 141.7,56.9 148.1,58.8 139.9,88 		"/>
		<path class="st0" d="M148,64.3c-0.9,0-1.7-0.1-2.7-0.3c-2.7-0.7-5-2.3-6.4-4.8c-1.4-2.3-1.8-5.2-1.1-7.9s2.3-5,4.8-6.4l23.1-13.7
			c2.3-1.4,5.2-1.8,7.9-1.1c2.7,0.7,5,2.3,6.3,4.8c1.4,2.3,1.8,5.2,1.1,7.9s-2.3,5-4.8,6.4l-23.1,13.7
			C151.7,63.8,149.8,64.3,148,64.3 M171.1,36.2c-0.7,0-1.3,0.2-1.9,0.5L146,50.4c-0.9,0.5-1.5,1.3-1.7,2.3c-0.3,1-0.1,2,0.4,3
			c0.5,0.9,1.3,1.5,2.3,1.7s2,0.1,3-0.4l23.1-13.7c0.9-0.5,1.5-1.3,1.7-2.3c0.3-1,0.1-2-0.4-3c-0.5-0.9-1.3-1.5-2.3-1.7
			C171.7,36.3,171.4,36.2,171.1,36.2z"/>
		<path class="st0" d="M110,121.2c-0.7,0-1.4-0.2-2-0.7c-1.4-1.1-1.6-3.2-0.6-4.6l18.9-24.2c1.1-1.4,3.2-1.6,4.6-0.5
			s1.6,3.2,0.5,4.6l-18.9,24.1C111.8,120.7,110.9,121.2,110,121.2"/>
		<polyline class="st0" points="96.3,127.5 57.2,127.5 57.2,101.5 96.3,101.5 96.3,108 63.7,108 63.7,121 96.3,121 96.3,127.5 		"/>
		<polyline class="st0" points="132.1,147.1 73.4,147.1 73.4,121 96.3,121 96.3,127.5 80,127.5 80,140.6 125.6,140.6 125.6,124.2 
			132.1,124.2 132.1,147.1 		"/>
	</g>
</g>
<g id="grond" class="st1">
	<g id="icoon_1_" class="st3">
		<g>
			<g>
				<rect x="101.4" y="157.4" class="st4" width="47.8" height="15.3"/>
				<path class="st5" d="M123.8,108.1h-22.7V65.9c0-6.4,5.1-11.6,11.3-11.6c6.2,0,11.3,5.2,11.3,11.6L123.8,108.1 M104.1,106H121
					V66.1c0-4.9-3.8-8.8-8.4-8.8c-4.7,0-8.4,4-8.4,8.8C104.1,66.1,104.1,106,104.1,106z"/>
				<path class="st4" d="M118.6,70L118.6,70c-2.7,4.9-8.8,6.6-13.5,3.8L57.5,45c-4.7-2.8-6.3-9.2-3.6-14.1s8.8-6.6,13.5-3.8
					L115,55.8C119.7,58.7,121.3,65,118.6,70"/>
				<path class="st5" d="M110,76.6c-1.9,0-3.8-0.5-5.6-1.6L56.8,46.3c-2.6-1.6-4.5-4.1-5.3-7.2c-0.8-3.1-0.4-6.2,1.1-9
					c1.5-2.7,3.9-4.7,6.9-5.5s5.9-0.4,8.6,1.2l47.6,28.7c5.4,3.3,7.3,10.5,4.1,16.2C117.7,74.5,114,76.6,110,76.6 M62.5,27.3
					c-0.8,0-1.4,0.1-2.2,0.3c-2.2,0.6-4,2.1-5.2,4.1c-1.1,2-1.4,4.4-0.9,6.7c0.6,2.3,2,4.2,3.9,5.4l47.6,28.7c4,2.4,9.2,1,11.5-3.2
					l1.2,0.8l-1.2-0.8c2.3-4.2,1-9.6-3.1-12L66.7,28.5C65.3,27.7,63.9,27.3,62.5,27.3z"/>
				<path class="st4" d="M21.4,98.9l29.5-67.8c3.2-5.7,9.5-8,14.3-5.1c4.7,2.8,6,9.8,2.9,15.4l-41.8,61.2"/>
				<path class="st4" d="M26.2,102.6"/>
				<path class="st5" d="M26.5,104.7l-6.9-5.3l30-68.9v-0.1c1.7-3.1,4.3-5.3,7.3-6.4c3.1-1.1,6.2-0.8,8.9,0.8
					c2.7,1.6,4.5,4.3,5.1,7.7c0.6,3.3,0,6.8-1.7,9.8v0.1v0.1L26.5,104.7 M23.2,98.4l2.7,2.1l40.9-59.9c1.3-2.4,1.8-5.1,1.3-7.7
					c-0.5-2.5-1.8-4.5-3.7-5.6c-1.9-1.2-4.2-1.3-6.5-0.5s-4.4,2.6-5.7,5L23.2,98.4z"/>
				<path class="st5" d="M182,196.9H77.5c-6.6,0-12-5.6-12-12.5s5.4-12.5,12-12.5H182c6.6,0,12,5.6,12,12.5S188.5,196.9,182,196.9
					 M77.5,175c-5,0-9,4.2-9,9.4s4,9.4,9,9.4H182c5,0,9-4.2,9-9.4s-4-9.4-9-9.4H77.5z"/>
				<path class="st5" d="M189.1,162.9H95.5c-5.4,0-10.2-3.6-12.1-8.9c-0.5-1.4-0.8-2.9-0.8-4.4v-30.3c0-7.4,5.7-13.3,12.7-13.3h35.2
					c7.1,0,12.7,6,12.7,13.3v11.6h45.6c4.1,0,7.9,1.7,10.8,4.7c2.9,3,4.5,7,4.5,11.3C204.4,155.8,197.5,162.9,189.1,162.9 M95.5,109
					c-5.5,0-9.9,4.6-9.9,10.3v30.3c0,1.2,0.2,2.3,0.6,3.4c1.4,4.1,5.2,6.9,9.3,6.9H189c6.8,0,12.4-5.8,12.4-13
					c0-3.5-1.2-6.7-3.6-9.2c-2.3-2.4-5.5-3.8-8.8-3.8h-48.4v-14.7c0-5.7-4.4-10.3-9.9-10.3H95.5V109z"/>
				<path class="st4" d="M71.8,120.8l-8-5.3l-9.3,0.3L23.3,94.4c0,0-12.9,30-8.1,33.9c4.7,3.7,9.7,7.2,19.6,13.4
					c7.9,4.9,32.6-15.5,33.7-16.3L71.8,120.8"/>
				<path class="st5" d="M37.9,144c-1.4,0-2.8-0.3-3.7-1c-9.8-6.1-14.9-9.6-19.8-13.5c-1.6-1.3-2-3.9-1.3-8.4
					c0.5-3.1,1.5-7,3.1-11.7c2.6-8,5.9-15.5,5.9-15.6l0.7-1.6l32.3,22.1l9.2-0.3l9.8,6.5l-4.5,6l-0.1,0.1
					c-0.7,0.6-7.1,5.8-14.5,10.4c-4.3,2.7-8.1,4.6-11.2,5.8C41.4,143.6,39.5,144,37.9,144 M23.9,96.6c-1.1,2.6-3.3,8.1-5.2,13.8
					c-1.5,4.6-2.5,8.3-3,11.2c-0.8,4.6,0.1,5.4,0.2,5.5c4.8,3.8,9.9,7.3,19.5,13.3c1.3,0.9,3.8,0.7,7.2-0.5c3-1.1,6.6-2.9,10.7-5.5
					c6.8-4.3,12.8-9.1,14-10.1l2.3-3.1l-6.3-4.2l-9.3,0.3L23.9,96.6z"/>
			</g>
		</g>
	</g>
</g>
<path class="st6" d="M115.4,74.6c10.4,3,20.4,6.5,30.4,10.2c2.1,0.7,4.1,1.5,6.1,2.2l0.4,0.1l-0.4,0c-22.9,0.1-45.7,1.4-68.6,2.6
	c-4,0.2-8.1,0.5-12.2,0.7l-0.1,0l0,0c-1.3-2.8-2.5-5.4-4-7.9c-1.5-2.5-3.2-4.8-5.3-7.1l-0.1-0.1l0.1,0c8.3-1.7,16.9-2.5,25.6-2.6
	C96.8,72.6,106.3,73.3,115.4,74.6L115.4,74.6L115.4,74.6L115.4,74.6z M64.9,93.1L64.9,93.1L64.9,93.1c-0.1-0.4-0.2-0.7-0.3-1
	c-1.6-4.3-3.9-10.3-6.5-13.6c-1.1-1.3-2.1-2-3.3-2.1c-1.2-0.1-2.5,0.4-4.1,1.3c-3.9,2.1-8.2,5.1-12.5,8.2c-4.3,3.1-8.4,6.4-11.9,9.1
	l-0.1,0.1l0.2,0c8.1,0.8,16.5,0.3,24.7,0.6l0.7,0.5l0,0l0.1,0c0.4,0.2,0.5,0.3,0.7,0.3l0,0h0c0.7,0,1.8-0.1,2.4-0.3
	c0.2-0.1,0.3-0.2,0.4-0.3c0.1-0.1,0.1-0.3,0.2-0.5L64.9,93.1L64.9,93.1z M37.9,90.8c2.8-0.1,5.5-0.1,8.3,0l0.2,0.1
	c1,0.4,1.7,0.6,2.5,1.4l-9.1,0.2c-0.4-0.1-0.9-0.4-1.3-0.7C38.1,91.5,37.8,91.2,37.9,90.8L37.9,90.8z M109.9,75l-14.1-0.7
	c11.5,4.1,23.3,7.6,34.7,12.1c4.6,0,9.1-0.1,13.7-0.2l0.5,0L109.9,75L109.9,75z M143.5,107.3l4.8-2l0.6-0.2h0.5
	c15.1-1.4,28.4-2.9,43.5-4.6l-3.6-2.6l0,0l0,0c-0.2-1.7-0.5-2.2-1.6-3.5l-0.2-0.3l0.3,0.2l9.4,4.4l0,0l0,0c1.2,1,2.1,1.8,2.5,2.8
	c0.4,1,0.3,2.1-0.4,3.7l0,0.1l-0.1-0.1l-4-2.9c-15.1,1.7-30.3,3-45.5,4.4l-3.7,1.8c1.3,0.6,2.6,1.3,3.9,2.1l0.3,0.2l-0.3,0
	l-40.9-2.4l0,0l-3.3-0.3l0,0l0,0c-1-0.6-2.1-1.2-3.1-1.8c-5.3-3.1-10.6-6.2-16.4-8.2l-0.6-0.2l0.6,0l1.7,0.1
	c15.7,1.2,29.5,2.3,45.2,5.1l0,0l0,0c0.6,0.2,1.2,0.5,1.8,0.7c3.8,1.5,7.3,2.8,10.9,4.6L143.5,107.3z M53.3,144.2
	c-5.3-1.9-10.4-3.4-15.6-4.8c-5.2-1.4-10.4-2.6-16-3.9c-0.6-4.1-1.1-7.5-1.7-11c-0.6-3.5-1.4-7-2.4-11.2c-0.8-4.5-1.9-7.4-3-8.6
	c-0.5-0.5-0.9-0.7-1.4-0.7c-0.4,0-0.8,0.4-1.2,1c-0.8,1.4-1.3,4.4-1,9c-0.3,2.9-0.2,9,0.5,14.5c0.5,4.1,1.3,8,2.4,9.9h0
	c0.3,0.6,0.8,1.1,1.3,1.5c0.5,0.4,1.2,0.6,1.9,0.7c0.6,0.1,1.3,0.1,1.9,0.1c0.6,0,1.3-0.1,1.9-0.2c1.6-0.3,2.2-0.8,3-2.2
	c7.9,2.3,15.9,4.4,23.8,6.4c2.1,0.6,4.3,1.1,6.5,1.7c3.8,5.1,7.5,8,11.7,9.1c4.3,1.1,9.1,0.4,15.4-1.7
	c33.3,7.3,100.1-2.3,128.7-21.1l0.6-0.4l-0.7,0.3c-36.5,14.5-87.5,21.6-126.6,18.2c-0.5-6.6-1.5-14.8-3.2-22.6
	c-1.4-6.3-3.1-12.3-5.4-17c-2.2-4.7-4.8-8.7-7.5-10.8c-1.4-1.1-2.8-1.7-4.1-1.6c-1.4,0.1-2.7,0.8-3.9,2.3c-1.9,2.4-3.5,6.7-4.8,13.5
	c-2.9,5.8-4.3,10.2-4.4,14.7C50.1,134,51.3,138.4,53.3,144.2L53.3,144.2z M82.9,146c-1.5,2.4-3.8,4.5-6.4,5.8
	c-2.5,1.2-5.2,1.8-7.9,1.3c-4-0.7-7.4-3.4-10-7c-3-4.2-4.8-9.5-5-13.9c-0.2-4.9,1.2-10.8,4.2-15.2c2.4-3.6,6-6.3,10.5-6.6
	c1.2-0.1,2.4,0,3.5,0.3c1.1,0.2,2.1,0.5,3.1,0.9c0.3,0.6,0.5,1.1,0.8,1.7c-1.2-0.7-3.1-1.2-5.1-1.3c-1.9-0.1-3.9,0.2-5.7,0.9
	c-7.5,3.1-10.5,11-10.2,18.8c0.1,2.9,0.7,5.7,1.6,8.4c1,2.6,2.3,5.1,4,7c3.7,4.3,9.1,6.4,15.5,3.9c1.4-0.5,2.7-1.5,3.9-2.7
	c1.4-1.4,2.5-3,3.1-4.1C82.8,144.8,82.9,145.4,82.9,146L82.9,146z M160.9,121.3l-0.4,1.5l0,0l0,0c-2.3,0.7-4.5,1.2-6.8,1.7
	c-2.3,0.5-4.5,0.9-6.9,1.3l-0.1,0.1c-2.9,5.5-4.9,9.4-10.1,13.1l0,0l0,0c-3.1,0.9-7.8,1.9-13,2.6c-4.3,0.6-9,1-13,1
	c-2.7,0-4-0.7-4.4-1.9c-0.3-1.2,0.3-2.8,1.4-4.7c1.1-1.9,2.2-3.9,3.4-5.8c1.2-1.9,2.5-3.8,3.9-5.4v0c2.3-2.6,3.1-2.6,5.8-2.6
	c0.4,0,0.8,0,1.3,0c8.8,0,17.6-0.3,26.4-0.6C152.7,121.5,156.8,121.3,160.9,121.3L160.9,121.3L160.9,121.3L160.9,121.3z
	 M155.9,142.4c1.5-2,2.9-4,4.3-6c2.8-4.1,5.6-8.1,8.9-11.8c1.4-1.6,2.5-2.6,3.7-3.2c1.2-0.7,2.6-1,4.7-1.5c4.9-1.1,10-1.8,15-2.5
	c2.8-0.4,5.6-0.8,8.3-1.3c1.7-0.3,2.9-0.4,3.7,0c0.8,0.4,1.2,1.3,1.4,3.1c0.5,3.6,0.2,6.6,0,10.3c0,0.6-0.1,1.2-0.1,1.8l0,0.1
	l-0.1,0L156,142.5l-0.2,0L155.9,142.4L155.9,142.4z M94.3,99.3h-2.9l13.1,7.2l38.1,2.5l-2.6-1.6l-35.8-3.2l0,0l0,0L94.3,99.3
	L94.3,99.3z M12.4,129.4c-0.3-1.7-0.4-3.5-0.6-5.3c-0.2-2-0.2-3.9-0.3-5.5c0-1.7,0-3.1,0.1-4c0.1-0.9,0.3-1.6,0.5-2.3
	c0.2-0.6,0.4-1.1,0.7-1.5c0.1-0.2,0.3-0.3,0.5-0.5c0.2-0.1,0.3-0.2,0.5-0.2c0.2,0,0.4,0,0.5,0c0.2,0.1,0.4,0.2,0.5,0.3
	c0.3,0.2,0.6,0.6,0.9,1.1c0.3,0.5,0.5,1.1,0.8,1.8c0.4,1.2,0.8,2.6,1.1,4.1c0.3,1.5,0.6,3.2,0.8,5c0.2,1.7,0.3,3.5,0.3,5.2
	c0,1.7,0,3.3-0.1,4.9c-0.1,1.2-0.3,2.2-0.5,3c-0.2,0.9-0.5,1.6-0.9,2c-0.2,0.2-0.3,0.4-0.5,0.5c-0.2,0.1-0.4,0.2-0.6,0.2
	c-0.2,0-0.4,0-0.6-0.1c-0.2-0.1-0.4-0.2-0.6-0.4c-0.3-0.3-0.7-0.8-1-1.6c-0.3-0.7-0.6-1.6-0.9-2.6C12.9,132.4,12.6,130.9,12.4,129.4
	L12.4,129.4z M13,129.3c-0.2-1.7-0.4-3.5-0.6-5.2c-0.2-1.9-0.2-3.8-0.3-5.4c0-1.6,0-3,0.1-3.9c0.1-0.8,0.2-1.5,0.4-2.1
	c0.2-0.6,0.4-1,0.6-1.3c0.1-0.1,0.2-0.2,0.3-0.3h0c0.1-0.1,0.2-0.1,0.3-0.1c0.1,0,0.2,0,0.3,0c0.1,0,0.2,0.1,0.3,0.2
	c0.2,0.2,0.5,0.5,0.7,0.9c0.2,0.4,0.5,0.9,0.7,1.6c0.4,1.1,0.8,2.5,1.1,4c0.3,1.5,0.6,3.2,0.8,4.9c0.2,1.7,0.3,3.4,0.3,5.2
	c0,1.7,0,3.3-0.1,4.8c-0.1,1.1-0.3,2.1-0.5,2.9c-0.2,0.8-0.5,1.5-0.8,1.9c-0.1,0.1-0.2,0.3-0.3,0.3c-0.1,0.1-0.2,0.1-0.3,0.1
	c-0.1,0-0.2,0-0.3,0c-0.1,0-0.2-0.1-0.3-0.2c-0.3-0.3-0.6-0.8-0.9-1.4c-0.3-0.6-0.5-1.4-0.8-2.5C13.5,132.3,13.3,130.8,13,129.3
	L13,129.3z M189.3,95.6l0.5,0.9l5.3,2.8l0,0l0,0c0.1,0.5,0.3,1,0.4,1.5c0.1,0.5,0.2,0.9,0.3,1.5l1.5,1c-0.2-1.1-0.4-2-0.6-2.8
	c-0.3-0.8-0.6-1.3-1.1-1.8L189.3,95.6z"/>
</svg>
