<?xml version="1.0" encoding="utf-8"?>
<!-- Generator: Adobe Illustrator 24.3.0, SVG Export Plug-In . SVG Version: 6.00 Build 0)  -->
<svg version="1.1" xmlns="http://www.w3.org/2000/svg" xmlns:xlink="http://www.w3.org/1999/xlink" x="0px" y="0px"
	 viewBox="0 0 215.2 215.2" style="enable-background:new 0 0 215.2 215.2;" xml:space="preserve">
<style type="text/css">
	.st0{fill:#00374E;}
	.st1{fill:#F1C631;}
</style>
<g id="Laag_1">
	<rect class="st0" width="215.2" height="215.2"/>
</g>
<g id="icoon">
	<path class="st1" d="M38,156.5h51.1v25.5H38V156.5z M44.4,175.7h38.3v-12.8H44.4V175.7z"/>
	<path class="st1" d="M82.7,156.5h51.1v25.5H82.7V156.5z M89.1,175.7h38.3v-12.8H89.1V175.7z"/>
	<path class="st1" d="M60.4,137.4h51.1v25.5H60.4V137.4z M66.8,156.5h38.3v-12.8H66.8V156.5z"/>
	<path class="st1" d="M105.1,137.4h51.1v25.5h-51.1V137.4z M111.4,156.5h38.3v-12.8h-38.3V156.5z"/>
	<path class="st1" d="M127.4,156.5h51.1v25.5h-51.1V156.5z M133.8,175.7h38.3v-12.8h-38.3V175.7z"/>
	<path class="st1" d="M38,118.2h44.7v25.5H38V118.2z M44.4,137.4h31.9v-12.8H44.4V137.4z"/>
	<path class="st1" d="M127.4,118.2h51.1v25.5h-51.1V118.2z M133.8,137.4h38.3v-12.8h-38.3V137.4z"/>
	<path class="st1" d="M38,79.9h51.1v25.5H38V79.9z M44.4,99.1h38.3V86.3H44.4V99.1z"/>
	<path class="st1" d="M101.6,135.5c-1.3,0-2.6-0.4-3.8-1.2c-2.2-1.4-3.3-3.9-3-6.5l6.2-48.8c0.2-1.9,1.3-3.6,2.9-4.7
		c1.6-1.1,3.5-1.5,5.4-1l55.9,13c2.7,0.6,4.8,2.8,5.2,5.6c0.4,2.8-0.9,5.5-3.3,6.9L105,134.5C104,135.2,102.8,135.5,101.6,135.5
		 M107.9,79.5c-0.1,0-0.2,0-0.2,0.1l-6.4,49.1c0,0.1,0,0.2,0.2,0.4c0.2,0.1,0.3,0,0.4,0L164,93.3c0.1,0,0.2-0.1,0.2-0.4
		c0-0.3-0.2-0.3-0.3-0.3L107.9,79.5C107.9,79.5,107.9,79.5,107.9,79.5z"/>
	<polyline class="st1" points="141.4,85.9 135.2,84.2 143.2,55.5 149.4,57.3 141.4,85.9 	"/>
	<path class="st1" d="M149.3,62.7c-0.9,0-1.7-0.1-2.6-0.3c-2.6-0.7-4.9-2.3-6.3-4.7c-1.4-2.3-1.8-5.1-1.1-7.7
		c0.7-2.6,2.3-4.9,4.7-6.3l22.6-13.4c2.3-1.4,5.1-1.8,7.7-1.1c2.6,0.7,4.9,2.3,6.2,4.7c1.4,2.3,1.8,5.1,1.1,7.7
		c-0.7,2.6-2.3,4.9-4.7,6.3l-22.6,13.4C152.9,62.2,151.1,62.7,149.3,62.7 M171.9,35.2c-0.7,0-1.3,0.2-1.9,0.5l-22.6,13.4
		c-0.9,0.5-1.5,1.3-1.7,2.3c-0.3,1-0.1,2,0.4,2.9c0.5,0.9,1.3,1.5,2.3,1.7c1,0.2,2,0.1,2.9-0.4l22.6-13.4c0.9-0.5,1.5-1.3,1.7-2.3
		c0.3-1,0.1-2-0.4-2.9c-0.5-0.9-1.3-1.5-2.3-1.7C172.5,35.3,172.2,35.2,171.9,35.2z"/>
	<path class="st1" d="M112.1,118.4c-0.7,0-1.4-0.2-2-0.7c-1.4-1.1-1.6-3.1-0.6-4.5L128,89.5c1.1-1.4,3.1-1.6,4.5-0.5
		c1.4,1.1,1.6,3.1,0.5,4.5l-18.5,23.6C113.9,117.9,113,118.4,112.1,118.4"/>
	<polyline class="st1" points="98.7,124.6 60.4,124.6 60.4,99.1 98.7,99.1 98.7,105.5 66.8,105.5 66.8,118.2 98.7,118.2 98.7,124.6 
			"/>
	<polyline class="st1" points="133.8,143.8 76.3,143.8 76.3,118.2 98.7,118.2 98.7,124.6 82.7,124.6 82.7,137.4 127.4,137.4 
		127.4,121.4 133.8,121.4 133.8,143.8 	"/>
</g>
</svg>
